<?xml version="1.0" encoding="utf-8"?>
<!-- Generator: Adobe Illustrator 18.1.1, SVG Export Plug-In . SVG Version: 6.00 Build 0)  -->
<svg version="1.1" id="Layer_1" xmlns="http://www.w3.org/2000/svg" xmlns:xlink="http://www.w3.org/1999/xlink" x="0px" y="0px"
	 viewBox="-49 141 512 512" enable-background="new -49 141 512 512" xml:space="preserve">
<path fill="#2176C7" d="M207,141C65.6,141-49,255.6-49,397S65.6,653,207,653s256-114.6,256-256S348.4,141,207,141z M207,613
	C87.7,613-9,516.3-9,397s96.7-216,216-216s216,96.7,216,216S326.3,613,207,613z"/>
<path fill="#2176C7" d="M317,365.3h-9.7l0,0c0,0-1.7,0-2,0c-16,0-18.7-14.2-18.7-14.2l0.4,0.3c-1.9-45.8-36.7-82.2-84.2-82.5v0.1
	h-38.6h0.6c-47.4,0.3-85.6,38.1-85.6,85.5c0,0.2,0-0.2,0-0.2l0,0v85.3l0,0c0,47.4,38,85,85.6,85.3v0h85.6V525
	c42.8-0.9,84.8-37.9,84.8-85.3l0,0v-57.5C335,373.1,326.1,365.3,317,365.3z M159.8,332.6C159.9,332.6,159.8,332.6,159.8,332.6
	L159.8,332.6l47.6,0v0c9.5,0.2,15.6,8.9,15.6,17.2s-6.1,15.5-15.6,15.5l0,0h-47.5c0,0-0.5,0-0.6,0c-8.5,0-17.2-7.2-17.2-15.7
	S151.3,332.6,159.8,332.6z M247.7,461.7L247.7,461.7h-87.8v-0.5c0,0-0.5,0-0.6,0c-8.5,0-17-8.2-17-16.7c0-8.5,8.5-15.2,17-15.2
	c0.1,0,0.5,0,0.5,0h0h89h-0.2c9.5,0,14.6,7.6,14.6,16C263,453.6,257.2,461.7,247.7,461.7z"/>
</svg>
