<?xml version="1.0" encoding="utf-8"?>
<!-- Generator: Adobe Illustrator 18.1.1, SVG Export Plug-In . SVG Version: 6.00 Build 0)  -->
<svg version="1.1" id="Layer_1" xmlns="http://www.w3.org/2000/svg" xmlns:xlink="http://www.w3.org/1999/xlink" x="0px" y="0px"
	 viewBox="168.3 217.1 290.6 288.3" enable-background="new 168.3 217.1 290.6 288.3" xml:space="preserve">
<g id="Rocket">
	<g>
		<path fill="#BA9E76" d="M437,303.9c0,3.6,2.4,6.6,5.6,7.6l11.3,3.4c0.1,0,0.3,0.1,0.5,0.1c0.9,0,1.6-0.7,1.6-1.6
			c0-0.2,0-0.3-0.1-0.5l-3.4-11.3c-1-3.2-4-5.6-7.6-5.6C440.5,296,437,299.6,437,303.9z M357.9,221.8c0,16.4,0.8,33.5,9.8,47.3
			c4.7,7.3,11.4,13.3,18.8,18.2c0.7,11.8,6.7,22.8,16.5,29.8c0.8,0.6,1.8,0.9,2.8,0.9c0.6,0,1.2-0.1,1.8-0.4c1.5-0.6,2.6-2,2.9-3.6
			c0.7-4.3,2.6-9,5.4-13.7c3.2,0.9,6.2,1.6,9.1,2.1c0.3,0,0.5,0.1,0.8,0.1c1.2,0,2.5-0.5,3.4-1.4l12.9-12.8c1.1-1.1,1.6-2.6,1.3-4.2
			c-0.5-2.9-1.2-5.9-2.1-9.1c4.8-2.8,9.5-4.7,13.7-5.4c1.6-0.3,3-1.4,3.6-2.9c0.6-1.5,0.4-3.2-0.5-4.6c-7-9.7-18-15.7-29.8-16.4
			c-4.9-7.4-10.9-14.1-18.2-18.8c-13.8-9-30.3-9.7-47.3-9.7C360.1,217.1,357.9,219.2,357.9,221.8z M438.8,267.3
			c-1.5-4.3-3.4-8.7-5.5-12.9c5.8,1.4,11.1,4.4,15.3,8.7C445.4,264,442.1,265.5,438.8,267.3z M395.2,292.4c4.3,2.2,8.6,4,12.9,5.5
			c-1.8,3.3-3.3,6.5-4.3,9.7C399.6,303.4,396.6,298.1,395.2,292.4z M367.4,226.6c13.8,0.2,26.9,1.4,37.4,8.2
			c15.1,9.8,25.1,31,28.7,48.5l-9.3,9.3c-17.5-3.6-38.7-13.6-48.5-28.6C368.8,253.5,367.6,240.4,367.4,226.6z M399,250.3
			c0-4.4-3.5-7.9-7.9-7.9c-4.4,0-7.9,3.5-7.9,7.9c0,4.4,3.5,7.9,7.9,7.9C395.5,258.2,399,254.6,399,250.3z"/>
	</g>
</g>
<g>
	<path fill="#BA9E76" d="M231.8,471.5c15,20.7,37.7,34,63.1,34s48.1-13.2,63.1-34c-18.6,4.6-40.1,7.2-63.1,7.2
		C271.9,478.7,250.4,476.1,231.8,471.5z"/>
	<path fill="#BA9E76" d="M377.5,371.8c1.4,3.8,2.6,7.7,3.6,11.7c8.6,3.8,13.6,8.3,13.6,13c0,5.5-6.7,10.6-18,14.8
		c-0.2-51.6-36.8-93.4-81.8-93.4c-45.1,0-81.7,41.8-81.8,93.4c-11.4-4.2-18-9.3-18-14.8c0-4.8,5-9.2,13.6-13c1-4,2.2-7.9,3.6-11.7
		c-27.4,9.6-44.8,23.9-44.8,39.9c0,2.1,0.3,4.1,0.9,6.1c7.4,26.1,61.2,46.3,126.6,46.3c65.3,0,119.2-20.2,126.6-46.3
		c0.6-2,0.8-4,0.8-6.1C422.3,395.7,404.9,381.4,377.5,371.8z"/>
</g>
</svg>
