<?xml version="1.0" encoding="utf-8"?>
<!-- Generator: Adobe Illustrator 18.1.1, SVG Export Plug-In . SVG Version: 6.00 Build 0)  -->
<svg version="1.1" id="Layer_1" xmlns="http://www.w3.org/2000/svg" xmlns:xlink="http://www.w3.org/1999/xlink" x="0px" y="0px"
	 viewBox="-49 141 512 512" enable-background="new -49 141 512 512" xml:space="preserve">
<path fill="#2176C7" d="M207,141C65.6,141-49,255.6-49,397S65.6,653,207,653s256-114.6,256-256S348.4,141,207,141z M207,613
	C87.7,613-9,516.3-9,397s96.7-216,216-216s216,96.7,216,216S326.3,613,207,613z"/>
<path fill="#2176C7" d="M310.5,382.2c-10.8-10.8-24-17.7-37.8-21.4c-14.6-3.9-29.9-3.7-44.5,0.5c-13.2,3.8-25.7,10.5-36.1,20.8
	c-13.7,13.7-34.4,15.7-50.4,6.5c-3.1-1.8-6.1-3.9-8.7-6.5c-16.3-16.3-16.3-42.8,0-59.1c16.4-16.3,42.8-16.3,59.2,0
	c2.7,2.6,4.7,5.6,6.5,8.7c14.5-4.2,29.8-4.4,44.5-0.5c-3.7-13.8-10.6-26.9-21.4-37.8c-32.7-32.6-85.6-32.6-118.3,0
	c-32.7,32.7-32.7,85.7,0,118.3c10.8,10.8,24,17.7,37.8,21.4c14.6,3.8,29.9,3.6,44.5-0.5c13.2-3.8,25.7-10.5,36.1-20.9
	c13.7-13.7,34.5-15.8,50.5-6.5c3,1.8,6,3.8,8.7,6.5c16.3,16.3,16.3,42.8,0,59.2c-16.3,16.3-42.9,16.3-59.2,0
	c-2.7-2.7-4.7-5.6-6.5-8.7c-14.5,4.2-29.8,4.3-44.4,0.5c3.7,13.8,10.5,26.9,21.4,37.8c32.7,32.6,85.6,32.6,118.3,0
	C343.2,467.8,343.2,414.9,310.5,382.2z"/>
</svg>
