<?xml version="1.0" encoding="utf-8"?>
<!-- Generator: Adobe Illustrator 18.1.1, SVG Export Plug-In . SVG Version: 6.00 Build 0)  -->
<svg version="1.1" id="Layer_1" xmlns="http://www.w3.org/2000/svg" xmlns:xlink="http://www.w3.org/1999/xlink" x="0px" y="0px"
	 viewBox="-49 141 512 512" enable-background="new -49 141 512 512" xml:space="preserve">
<g>
	<path fill="#FFFFFF" d="M448.9,571.1L331.5,453.6c-17.5,27.2-40.7,50.4-67.9,67.9l117.5,117.5c18.8,18.8,49.2,18.8,67.9,0
		C467.7,620.2,467.7,589.8,448.9,571.1z"/>
	<path fill="#FFFFFF" d="M335,333c0-106-86-192-192-192S-49,227-49,333s86,192,192,192S335,439,335,333z M143,477
		C63.6,477-1,412.4-1,333s64.6-144,144-144s144,64.6,144,144S222.4,477,143,477z"/>
	<path fill="#FFFFFF" d="M31,333h32c0-44.1,35.9-80,80-80v-32C81.2,221,31,271.2,31,333z"/>
</g>
</svg>
