<?xml version="1.0" encoding="utf-8"?>
<!-- Generator: Adobe Illustrator 18.1.1, SVG Export Plug-In . SVG Version: 6.00 Build 0)  -->
<svg version="1.1" id="Capa_1" xmlns="http://www.w3.org/2000/svg" xmlns:xlink="http://www.w3.org/1999/xlink" x="0px" y="0px"
	 viewBox="0 104.1 612 583.8" enable-background="new 0 104.1 612 583.8" xml:space="preserve">
<path fill="#BA9E76" d="M610.6,320.6c-1.7-7.6-9-12.3-17-12.3H390.4l-66.5-191.9c-2.9-8.4-8.6-12.3-17.6-12.3c-9,0-15.1,4-18,12.3
	l-66.5,191.9H18.6c-9,0-14.6,4-17.6,12.3c-2.3,9-0.4,15.7,6,20.6l163,127.4l-59.2,195.2c-2.6,8.6,0,15.6,6.7,20.6
	c7.3,4.3,15,4.9,21.9,0l167-116.4l166.6,116.4c3.6,2.5,7.3,3.3,11,3.3c10.3,0,18.3-8,18.3-18.3c0-1.7-0.2-4-1.3-7.6l-58.5-193.2
	l163-127.4C611.8,336.1,613.6,329.3,610.6,320.6z M409.7,447.3c-5.6,4.4-8.4,12.9-6.3,19.6l47.2,156.7l-134.4-93.1
	c-6.7-4.7-13.8-4.5-20.3,0l-134.4,93.1l47.2-156.7c2-6.7-0.7-15.2-6.3-19.6L71.8,345.2h163.6c8.3,0,14.1-4,17-12.3l53.9-154.7
	l53.5,154.7c2.9,8.4,8.6,12.3,17.3,12.3h163.3L409.7,447.3z"/>
</svg>
