<?xml version="1.0" encoding="utf-8"?>
<!-- Generator: Adobe Illustrator 18.1.1, SVG Export Plug-In . SVG Version: 6.00 Build 0)  -->
<svg version="1.1" id="Capa_1" xmlns="http://www.w3.org/2000/svg" xmlns:xlink="http://www.w3.org/1999/xlink" x="0px" y="0px"
	 viewBox="0 206 612 612" enable-background="new 0 206 612 612" xml:space="preserve">
<path fill="#2176C7" d="M462.8,439.2c0-3.7-0.1-7.3-0.2-11c15.8-11.7,29.5-26.5,40.3-43.4c-14.5,6.6-30,10.9-46.4,12.7
	c16.7-10.3,29.5-26.7,35.5-46.4c-15.7,9.4-32.9,16.3-51.3,19.8C426,354.2,405,343.5,381.8,343c-44.6-0.7-80.8,36.9-80.8,84.3
	c0,6.7,0.7,13.3,2.2,19.5c-67.2-4.3-126.7-39.3-166.6-92c-6.9,12.7-11,27.4-11,43.3c0,29.9,14.2,56.5,36,72.2
	c-13.3-0.6-25.7-4.7-36.6-11.2c0,0.4,0,0.7,0,1.1c0,41.8,27.9,76.9,64.8,85.1c-6.8,1.9-14,2.9-21.3,2.9c-5.3,0-10.3-0.6-15.2-1.7
	c10.3,34.3,40.2,59.3,75.4,60.1c-27.6,23-62.5,36.7-100.4,36.6c-6.6,0-12.9-0.5-19.2-1.2c35.7,24.5,78.3,38.8,124,38.8
	C381.5,680.8,462.8,551.4,462.8,439.2z"/>
<path fill="#2176C7" d="M306,206C137,206,0,343,0,512s137,306,306,306s306-137,306-306S474.9,206,306,206z M306,770.2
	C163.4,770.2,47.8,654.6,47.8,512S163.4,253.8,306,253.8S564.2,369.4,564.2,512S448.5,770.2,306,770.2z"/>
</svg>
